<?xml version="1.0" standalone="no"?>
<!DOCTYPE svg PUBLIC "-//W3C//DTD SVG 20010904//EN"
 "http://www.w3.org/TR/2001/REC-SVG-20010904/DTD/svg10.dtd">
<svg version="1.0" xmlns="http://www.w3.org/2000/svg"
 width="211.000000pt" height="239.000000pt" viewBox="0 0 211.000000 239.000000"
 preserveAspectRatio="xMidYMid meet">

<g transform="translate(0.000000,239.000000) scale(0.100000,-0.100000)"
fill="#000000" stroke="none">
<path d="M828 2350 l4 -30 -90 0 c-64 0 -93 -4 -101 -14 -15 -18 -6 -39 27
-58 34 -20 92 -75 92 -87 0 -20 -31 -31 -111 -37 -94 -8 -143 -27 -183 -74
-53 -64 -49 -144 13 -252 59 -104 129 -179 236 -253 50 -35 107 -79 124 -97
66 -67 93 -160 51 -173 -31 -10 -68 19 -93 73 -12 26 -23 49 -25 51 -7 12 -32
-28 -40 -64 -14 -65 0 -93 99 -190 50 -49 89 -81 85 -71 -5 16 -4 17 9 6 8 -7
12 -16 9 -21 -3 -5 0 -9 6 -9 6 0 9 -4 6 -9 -3 -5 1 -14 8 -20 10 -9 16 -9 21
-1 4 6 1 9 -7 8 -7 -2 -12 3 -10 10 1 7 -2 22 -8 32 -8 14 -8 20 0 20 6 0 8 5
4 11 -4 8 -1 8 13 1 15 -9 23 -7 36 8 9 11 23 17 32 14 11 -5 15 1 16 22 l0
29 11 -25 c6 -15 12 -20 15 -12 3 6 9 9 15 6 20 -13 4 195 -19 248 -21 47 -80
99 -133 119 -183 70 -295 218 -260 345 22 78 38 84 217 84 163 0 201 8 223 49
30 56 4 90 -124 160 -99 55 -108 67 -73 97 31 26 34 50 11 82 -18 25 -64 52
-92 52 -15 0 -18 -6 -14 -30z m262 -1176 c0 -8 -4 -12 -10 -9 -5 3 -10 10 -10
16 0 5 5 9 10 9 6 0 10 -7 10 -16z"/>
<path d="M1860 2262 c-62 -24 -110 -88 -111 -150 -1 -26 -1 -50 0 -54 0 -4
-10 -19 -24 -32 -15 -15 -25 -37 -25 -54 0 -43 -48 -109 -134 -186 l-77 -69
-34 16 c-91 43 -263 63 -328 38 -31 -12 -77 -95 -61 -110 5 -6 30 -5 64 1 91
17 201 -4 243 -46 23 -23 22 -68 -3 -98 -27 -35 -95 -61 -137 -53 -31 6 -35 3
-68 -50 -24 -37 -34 -62 -30 -75 9 -28 21 -25 34 8 7 15 18 36 26 46 14 19 16
18 45 -12 16 -18 30 -35 30 -39 0 -4 -23 -42 -52 -85 -33 -52 -48 -82 -41 -89
6 -6 30 19 69 75 51 72 64 85 92 88 39 5 57 -7 66 -43 4 -20 -2 -35 -27 -65
-18 -21 -54 -65 -81 -96 l-47 -57 30 -15 c17 -9 55 -16 88 -16 55 0 61 2 94
38 20 20 53 58 73 84 l37 47 -22 31 c-44 58 -22 135 47 168 34 16 37 15 72 -3
45 -25 108 -139 118 -216 4 -29 13 -53 21 -56 8 -3 28 11 49 33 31 35 34 44
31 86 -5 60 -61 178 -119 249 l-46 56 32 85 c42 112 88 183 127 197 19 7 35
21 42 40 9 23 23 34 66 50 77 28 111 81 111 170 0 57 -3 67 -36 106 -24 30
-50 49 -81 59 -57 20 -66 19 -123 -2z m114 -22 c17 -6 24 -14 20 -25 -9 -22
-129 -22 -138 0 -11 29 66 45 118 25z m-142 -110 c-14 -41 -24 -56 -40 -58
-19 -3 -22 1 -22 34 0 50 45 113 66 92 12 -12 11 -22 -4 -68z m248 -22 c0 -30
-4 -38 -18 -38 -14 0 -23 15 -37 59 -23 76 -12 97 27 51 20 -24 28 -45 28 -72z
m-78 17 l17 -50 -37 -32 c-20 -18 -43 -33 -50 -33 -19 0 -92 51 -92 65 0 18
21 78 33 93 7 8 28 12 61 10 l51 -3 17 -50z m-129 -110 c29 -22 47 -43 47 -55
0 -11 -2 -20 -5 -20 -3 0 -34 21 -70 47 -54 39 -63 49 -48 54 26 11 24 12 76
-26z m184 27 c20 -12 -31 -75 -72 -89 -63 -22 -62 13 1 62 51 38 53 39 71 27z
m-227 -93 c73 -53 82 -66 53 -75 -10 -3 -26 -10 -35 -15 -13 -6 -31 1 -72 29
-56 38 -58 43 -40 100 6 20 21 14 94 -39z m-455 -204 c47 -14 105 -35 128 -47
35 -17 39 -18 28 -4 -23 27 6 40 39 18 96 -63 140 -99 140 -115 0 -14 -5 -17
-22 -11 -17 5 -10 -7 28 -49 66 -72 109 -137 132 -201 31 -84 34 -112 12 -138
l-19 -23 -1 61 c0 52 -4 64 -26 85 -15 13 -47 55 -71 92 -58 88 -90 109 -165
105 l-57 -3 -6 35 c-15 78 -58 118 -155 140 -30 7 -76 23 -101 36 l-46 23 -53
-20 c-57 -22 -64 -21 -54 5 17 43 140 48 269 11z m94 -173 c11 -16 23 -40 26
-54 6 -23 13 -26 62 -30 49 -4 72 -17 73 -40 0 -4 -14 -3 -31 2 -25 7 -30 6
-25 -5 3 -9 -5 -16 -27 -21 -18 -3 -43 -12 -57 -19 -61 -31 -65 -27 -65 57 0
59 3 78 14 78 11 0 10 5 -3 25 -20 30 -20 35 -2 35 8 0 24 -13 35 -28z m-79
-114 c0 -7 -3 -30 -6 -50 -5 -31 -11 -38 -35 -43 -23 -5 -37 -1 -63 22 -43 35
-44 43 -3 43 17 0 46 9 62 19 36 23 45 25 45 9z"/>
<path d="M210 2147 c-142 -40 -200 -130 -200 -307 0 -139 41 -272 112 -362 43
-55 70 -51 104 12 32 59 66 84 111 82 46 -2 78 -26 102 -78 28 -59 26 -107 -9
-244 -17 -63 -30 -136 -30 -162 0 -43 5 -53 61 -117 61 -71 189 -178 170 -143
-7 13 -6 23 2 32 10 10 8 10 -10 1 -14 -7 -24 -8 -28 -1 -3 5 1 10 9 10 9 0
16 4 16 9 0 4 21 16 48 26 26 10 52 24 57 31 6 7 19 14 29 16 11 1 19 8 18 13
0 6 7 13 17 17 32 12 16 46 -63 128 -104 109 -119 145 -117 278 2 129 -7 147
-144 282 -116 114 -165 199 -165 287 0 70 18 112 66 151 21 17 35 34 32 37
-13 13 -145 14 -188 2z"/>
<path d="M820 994 c11 -12 11 -15 0 -12 -7 2 -15 -3 -17 -10 -3 -7 1 -10 10
-6 8 3 18 0 22 -5 3 -6 11 -9 16 -6 10 7 -19 55 -33 55 -6 0 -5 -7 2 -16z"/>
<path d="M626 480 c-43 -76 -95 -179 -116 -227 -37 -86 -76 -230 -65 -241 17
-17 143 78 258 196 l87 89 0 60 c0 69 -9 123 -20 123 -4 0 -53 -60 -108 -132
-56 -73 -110 -144 -121 -158 -55 -67 4 69 117 273 63 112 78 157 52 157 -4 0
-42 -63 -84 -140z"/>
</g>
</svg>
