<?xml version="1.0" encoding="UTF-8"?>
<svg version="1.1" xmlns="http://www.w3.org/2000/svg" width="192" height="192">
<path d="M0 0 C63.36 0 126.72 0 192 0 C192 63.36 192 126.72 192 192 C128.64 192 65.28 192 0 192 C0 128.64 0 65.28 0 0 Z " fill="#F8F9FA" transform="translate(0,0)"/>
<path d="M0 0 C63.36 0 126.72 0 192 0 C192 63.36 192 126.72 192 192 C128.64 192 65.28 192 0 192 C0 128.64 0 65.28 0 0 Z M25.6875 34.375 C21.32123826 41.1669627 20.55622419 48.22496475 20.59594727 56.13452148 C20.58908401 57.10488342 20.58222076 58.07524536 20.57514954 59.07501221 C20.55696772 62.25719161 20.5607067 65.43887395 20.56640625 68.62109375 C20.56184043 70.84872089 20.55653367 73.07634663 20.55052185 75.30397034 C20.54160772 79.96320331 20.54399473 84.62226471 20.55395508 89.28149414 C20.56544428 95.23412029 20.54522479 101.18615318 20.51603794 107.13870144 C20.49763877 111.73626936 20.49797581 116.33369606 20.50367546 120.93129158 C20.50382821 123.12520238 20.49782253 125.31912304 20.48538399 127.51299858 C20.47040515 130.58773256 20.48120191 133.66138251 20.49829102 136.73608398 C20.48378906 138.07758263 20.48378906 138.07758263 20.46899414 139.44618225 C20.59051276 149.95651577 24.59983864 157.73469352 32 165 C38.72574558 171.54875228 47.13290244 172.44926032 56.13452148 172.40405273 C57.10488342 172.41091599 58.07524536 172.41777924 59.07501221 172.42485046 C62.25719161 172.44303228 65.43887395 172.4392933 68.62109375 172.43359375 C70.84872089 172.43815957 73.07634663 172.44346633 75.30397034 172.44947815 C79.96320331 172.45839228 84.62226471 172.45600527 89.28149414 172.44604492 C95.23412029 172.43455572 101.18615318 172.45477521 107.13870144 172.48396206 C111.73626936 172.50236123 116.33369606 172.50202419 120.93129158 172.49632454 C123.12520238 172.49617179 125.31912304 172.50217747 127.51299858 172.51461601 C130.58773256 172.52959485 133.66138251 172.51879809 136.73608398 172.50170898 C137.63041641 172.51137695 138.52474884 172.52104492 139.44618225 172.53100586 C149.95651577 172.40948724 157.73469352 168.40016136 165 161 C171.54875228 154.27425442 172.44926032 145.86709756 172.40405273 136.86547852 C172.41091599 135.89511658 172.41777924 134.92475464 172.42485046 133.92498779 C172.44303228 130.74280839 172.4392933 127.56112605 172.43359375 124.37890625 C172.43815957 122.15127911 172.44346633 119.92365337 172.44947815 117.69602966 C172.45839228 113.03679669 172.45600527 108.37773529 172.44604492 103.71850586 C172.43455572 97.76587971 172.45477521 91.81384682 172.48396206 85.86129856 C172.50236123 81.26373064 172.50202419 76.66630394 172.49632454 72.06870842 C172.49617179 69.87479762 172.50217747 67.68087696 172.51461601 65.48700142 C172.52959485 62.41226744 172.51879809 59.33861749 172.50170898 56.26391602 C172.51137695 55.36958359 172.52104492 54.47525116 172.53100586 53.55381775 C172.40948724 43.04348423 168.40016136 35.26530648 161 28 C154.27425442 21.45124772 145.86709756 20.55073968 136.86547852 20.59594727 C135.89511658 20.58908401 134.92475464 20.58222076 133.92498779 20.57514954 C130.74280839 20.55696772 127.56112605 20.5607067 124.37890625 20.56640625 C122.15127911 20.56184043 119.92365337 20.55653367 117.69602966 20.55052185 C113.03679669 20.54160772 108.37773529 20.54399473 103.71850586 20.55395508 C97.76587971 20.56544428 91.81384682 20.54522479 85.86129856 20.51603794 C81.26373064 20.49763877 76.66630394 20.49797581 72.06870842 20.50367546 C69.87479762 20.50382821 67.68087696 20.49782253 65.48700142 20.48538399 C62.41226744 20.47040515 59.33861749 20.48120191 56.26391602 20.49829102 C55.36958359 20.48862305 54.47525116 20.47895508 53.55381775 20.46899414 C41.48020447 20.60858712 33.81942184 26.02329649 25.6875 34.375 Z " fill="#111827" transform="translate(0,0)"/>
<path d="M0 0 C3 0 3 0 4.55656433 1.47767639 C5.10274918 2.15028 5.64893402 2.82288361 6.21166992 3.51586914 C9.81543933 7.81351775 13.64301236 11.78804696 17.61328125 15.74609375 C18.30890671 16.44267593 19.00453217 17.13925812 19.72123718 17.85694885 C21.17629346 19.31267999 22.63259063 20.7671718 24.09008789 22.22045898 C26.32750895 24.45247268 28.55947677 26.68984135 30.79101562 28.92773438 C32.21061654 30.34667534 33.63052717 31.76530654 35.05078125 33.18359375 C36.05229973 34.18814857 36.05229973 34.18814857 37.0740509 35.21299744 C37.69197006 35.82776443 38.30988922 36.44253143 38.9465332 37.07592773 C39.48945511 37.61805405 40.03237701 38.16018036 40.5917511 38.71873474 C41.99184264 40.10889393 41.99184264 40.10889393 44 41 C44 44 44 44 42.52232361 45.55656433 C41.84972 46.10274918 41.17711639 46.64893402 40.48413086 47.21166992 C36.18648225 50.81543933 32.21195304 54.64301236 28.25390625 58.61328125 C27.55732407 59.30890671 26.86074188 60.00453217 26.14305115 60.72123718 C24.68732001 62.17629346 23.2328282 63.63259063 21.77954102 65.09008789 C19.54752732 67.32750895 17.31015865 69.55947677 15.07226562 71.79101562 C13.65332466 73.21061654 12.23469346 74.63052717 10.81640625 76.05078125 C9.81185143 77.05229973 9.81185143 77.05229973 8.78700256 78.0740509 C8.17223557 78.69197006 7.55746857 79.30988922 6.92407227 79.9465332 C6.38194595 80.48945511 5.83981964 81.03237701 5.28126526 81.5917511 C3.89110607 82.99184264 3.89110607 82.99184264 3 85 C0 85 0 85 -1.55656433 83.52232361 C-2.10274918 82.84972 -2.64893402 82.17711639 -3.21166992 81.48413086 C-6.81543933 77.18648225 -10.64301236 73.21195304 -14.61328125 69.25390625 C-15.30890671 68.55732407 -16.00453217 67.86074188 -16.72123718 67.14305115 C-18.17629346 65.68732001 -19.63259063 64.2328282 -21.09008789 62.77954102 C-23.32750895 60.54752732 -25.55947677 58.31015865 -27.79101562 56.07226562 C-29.21061654 54.65332466 -30.63052717 53.23469346 -32.05078125 51.81640625 C-32.71846024 51.14670303 -33.38613922 50.47699982 -34.0740509 49.78700256 C-35.00092964 48.86485207 -35.00092964 48.86485207 -35.9465332 47.92407227 C-36.76091606 47.1108828 -36.76091606 47.1108828 -37.5917511 46.28126526 C-38.99184264 44.89110607 -38.99184264 44.89110607 -41 44 C-41 41 -41 41 -39.52232361 39.44343567 C-38.84972 38.89725082 -38.17711639 38.35106598 -37.48413086 37.78833008 C-33.18648225 34.18456067 -29.21195304 30.35698764 -25.25390625 26.38671875 C-24.55732407 25.69109329 -23.86074188 24.99546783 -23.14305115 24.27876282 C-21.68732001 22.82370654 -20.2328282 21.36740937 -18.77954102 19.90991211 C-16.54752732 17.67249105 -14.31015865 15.44052323 -12.07226562 13.20898438 C-10.65332466 11.78938346 -9.23469346 10.36947283 -7.81640625 8.94921875 C-7.14670303 8.28153976 -6.47699982 7.61386078 -5.78700256 6.9259491 C-4.86485207 5.99907036 -4.86485207 5.99907036 -3.92407227 5.0534668 C-3.1108828 4.23908394 -3.1108828 4.23908394 -2.28126526 3.4082489 C-0.89110607 2.00815736 -0.89110607 2.00815736 0 0 Z " fill="#111827" transform="translate(95,40)"/>
<path d="M0 0 C9.9 0 19.8 0 30 0 C26.19414061 4.44016929 22.52338931 8.60442137 18.41796875 12.71484375 C17.91832108 13.21544815 17.4186734 13.71605255 16.90388489 14.23182678 C15.86236119 15.27402363 14.81960329 16.31498848 13.77563477 17.35473633 C12.17019485 18.95474662 10.57025692 20.5601231 8.97070312 22.16601562 C7.95344609 23.18261306 6.93587953 24.1989009 5.91796875 25.21484375 C4.99781982 26.13386475 4.0776709 27.05288574 3.12963867 27.99975586 C1 30 1 30 0 30 C0 20.1 0 10.2 0 0 Z " fill="#F9FAFB" transform="translate(98,84)"/>
<path d="M0 0 C9.9 0 19.8 0 30 0 C30 9.9 30 19.8 30 30 C25.55983071 26.19414061 21.39557863 22.52338931 17.28515625 18.41796875 C16.78455185 17.91832108 16.28394745 17.4186734 15.76817322 16.90388489 C14.72597637 15.86236119 13.68501152 14.81960329 12.64526367 13.77563477 C11.04525338 12.17019485 9.4398769 10.57025692 7.83398438 8.97070312 C6.81738694 7.95344609 5.8010991 6.93587953 4.78515625 5.91796875 C3.86613525 4.99781982 2.94711426 4.0776709 2.00024414 3.12963867 C0 1 0 1 0 0 Z " fill="#F9FAFB" transform="translate(65,84)"/>
<path d="M0 0 C4.44016929 3.80585939 8.60442137 7.47661069 12.71484375 11.58203125 C13.21544815 12.08167892 13.71605255 12.5813266 14.23182678 13.09611511 C15.27402363 14.13763881 16.31498848 15.18039671 17.35473633 16.22436523 C18.95474662 17.82980515 20.5601231 19.42974308 22.16601562 21.02929688 C23.18261306 22.04655391 24.1989009 23.06412047 25.21484375 24.08203125 C26.13386475 25.00218018 27.05288574 25.9223291 27.99975586 26.87036133 C30 29 30 29 30 30 C20.1 30 10.2 30 0 30 C0 20.1 0 10.2 0 0 Z " fill="#F9FAFB" transform="translate(98,51)"/>
<path d="M0 0 C0 9.9 0 19.8 0 30 C-9.9 30 -19.8 30 -30 30 C-26.19414061 25.55983071 -22.52338931 21.39557863 -18.41796875 17.28515625 C-17.91832108 16.78455185 -17.4186734 16.28394745 -16.90388489 15.76817322 C-15.86236119 14.72597637 -14.81960329 13.68501152 -13.77563477 12.64526367 C-12.17019485 11.04525338 -10.57025692 9.4398769 -8.97070312 7.83398438 C-7.95344609 6.81738694 -6.93587953 5.8010991 -5.91796875 4.78515625 C-4.99781982 3.86613525 -4.0776709 2.94711426 -3.12963867 2.00024414 C-1 0 -1 0 0 0 Z " fill="#F9FAFB" transform="translate(95,51)"/>
<path d="M0 0 C12.36215439 -0.49448618 12.36215439 -0.49448618 15.3984375 1.859375 C17 4 17 4 17.375 6.5 C17 9 17 9 15.75 10.875 C14.74463538 12.95330736 14.74463538 12.95330736 15.7578125 14.734375 C16.80642836 16.50895568 17.9017412 18.25570661 19 20 C19 20.66 19 21.32 19 22 C17.02 22 15.04 22 13 22 C12.4225 20.865625 11.845 19.73125 11.25 18.5625 C9.64507365 15.62689703 9.64507365 15.62689703 6.75 14.0625 C6.1725 14.041875 5.595 14.02125 5 14 C5 16.64 5 19.28 5 22 C3.35 22 1.7 22 0 22 C0 14.74 0 7.48 0 0 Z " fill="#171E2D" transform="translate(64,134)"/>
<path d="M0 0 C0.77085938 -0.00257813 1.54171875 -0.00515625 2.3359375 -0.0078125 C4.5578189 0.12110212 6.49118508 0.51116283 8.625 1.125 C8.625 2.775 8.625 4.425 8.625 6.125 C7.85414062 6.02960938 7.08328125 5.93421875 6.2890625 5.8359375 C5.28617188 5.72507813 4.28328125 5.61421875 3.25 5.5 C2.25226563 5.38398438 1.25453125 5.26796875 0.2265625 5.1484375 C-0.63195312 5.14070312 -1.49046875 5.13296875 -2.375 5.125 C-4.61824836 6.93693006 -4.61824836 6.93693006 -4.5703125 9.5078125 C-4.54710938 10.41273438 -4.52390625 11.31765625 -4.5 12.25 C-4.48195313 13.16007813 -4.46390625 14.07015625 -4.4453125 15.0078125 C-4.42210938 15.70648438 -4.39890625 16.40515625 -4.375 17.125 C-1.735 17.455 0.905 17.785 3.625 18.125 C3.625 16.805 3.625 15.485 3.625 14.125 C2.635 14.125 1.645 14.125 0.625 14.125 C0.625 12.805 0.625 11.485 0.625 10.125 C3.265 10.125 5.905 10.125 8.625 10.125 C8.625 13.425 8.625 16.725 8.625 20.125 C3.9723153 22.45134235 0.73150545 22.8671219 -4.375 22.125 C-9.83841463 19.19817073 -9.83841463 19.19817073 -11.375 16.125 C-12.02007919 10.91828939 -12.2923523 7.30790165 -9 3.0625 C-5.65398131 0.59281954 -4.08063626 -0.01355693 0 0 Z " fill="#1E2533" transform="translate(119.375,133.875)"/>
<path d="M0 0 C12.24185013 -0.40357748 12.24185013 -0.40357748 17 3 C17.33 3.33 17.66 3.66 18 4 C17.875 7.375 17.875 7.375 17 11 C14.00125735 13.73414771 12.25699071 13.98736111 8.1875 14.1875 C7.135625 14.125625 6.08375 14.06375 5 14 C5 16.64 5 19.28 5 22 C3.35 22 1.7 22 0 22 C0 14.74 0 7.48 0 0 Z " fill="#141B2A" transform="translate(87,134)"/>
<path d="M0 0 C1.98 0 3.96 0 6 0 C6.38218767 1.65614657 6.71395102 3.32457024 7 5 C6 6 6 6 2.9375 6.0625 C1.4834375 6.0315625 1.4834375 6.0315625 0 6 C0 4.02 0 2.04 0 0 Z " fill="#DCDEE1" transform="translate(92,138)"/>
<path d="M0 0 C1.65 0 3.3 0 5 0 C5.38218767 1.65614657 5.71395102 3.32457024 6 5 C5 6 5 6 2.4375 6.0625 C1.2309375 6.0315625 1.2309375 6.0315625 0 6 C0 4.02 0 2.04 0 0 Z " fill="#E1E3E5" transform="translate(69,138)"/>
</svg>
